<?xml version="1.0" encoding="UTF-8"?>
<svg id="Layer_1" data-name="Layer 1" xmlns="http://www.w3.org/2000/svg" viewBox="0 0 1080 1080">
  <defs>
    <style>
      .cls-1 {
        fill: #0d0d0d;
      }

      .cls-2 {
        fill: #fff;
        stroke: #fff;
        stroke-miterlimit: 10;
        stroke-width: 76px;
      }
    </style>
  </defs>
  <rect class="cls-1" x="11.13" y="11.13" width="1057.73" height="1057.73" rx="78.96" ry="78.96"/>
  <path class="cls-2" d="M152.85,399.1c-10.64,0-19.75-9.01-19.75-19.53v-139.71c0-57.09,47.11-103.67,104.86-103.67h141.34c10.64,0,19.75,9.02,19.75,19.54s-9.12,19.53-19.75,19.53h-141.34c-36.47,0-66.87,30.05-66.87,66.09v139.73c0,10.5-7.6,18.02-18.24,18.02Z"/>
  <path class="cls-2" d="M844.34,944.46h-141.34c-10.64,0-19.75-9.02-19.75-19.54s9.12-19.53,19.75-19.53h141.34c36.47,0,66.87-30.05,66.87-66.09v-139.73c0-10.5,9.12-19.53,19.76-19.53s19.75,9.02,19.75,19.53v139.73c0,58.58-47.11,105.16-106.38,105.16Z"/>
  <path class="cls-2" d="M323.07,887.36h-1.53c-10.64-1.5-18.24-10.5-16.72-21.02,12.16-112.68,47.12-219.35,100.31-315.49,42.55-78.12,97.26-150.23,164.14-214.83,112.46-109.68,217.32-159.26,221.88-160.75,9.12-4.5,21.27,0,25.84,9.01,4.56,9.02,0,21.04-9.12,25.54-1.52,1.5-104.86,49.57-212.76,154.74-98.79,97.65-223.41,262.91-252.28,506.29-1.52,10.52-9.12,16.52-19.75,16.52Z"/>
  <path class="cls-2" d="M551.03,577.88c-39.52,0-82.07-7.51-123.11-31.54-9.12-4.52-12.16-16.53-7.59-25.54,4.56-9.02,16.72-12.02,25.84-7.51,101.82,58.58,227.96,0,229.48,0,9.12-4.5,21.27,0,25.84,9.01,4.56,9.02,0,21.04-9.12,25.54-3.04,1.5-65.35,30.05-141.34,30.05Z"/>
</svg>