<?xml version="1.0" encoding="UTF-8"?>
<svg id="Layer_1" data-name="Layer 1" xmlns="http://www.w3.org/2000/svg" viewBox="0 0 300 300">
  <defs>
    <style>
      .cls-1 {
        fill: #0d0d0d;
      }
    </style>
  </defs>
  <path class="cls-1" d="M284.14,3.49H17c-7.52,0-13.61,6.09-13.61,13.61v267.14c0,7.52,6.09,13.61,13.61,13.61h267.14c7.52,0,13.61-6.09,13.61-13.61V17.1c0-7.52-6.09-13.61-13.61-13.61ZM55.36,73.38v35.92c0,2.7-1.95,4.63-4.69,4.63s-5.08-2.32-5.08-5.02v-35.91c0-14.67,12.11-26.65,26.95-26.65h36.33c2.73,0,5.08,2.32,5.08,5.02s-2.34,5.02-5.08,5.02h-36.33c-9.38,0-17.19,7.72-17.19,16.99ZM151.06,122.96c-.75-.37-1.34-.94-1.76-1.63-21.68,25.76-43.8,63.23-49.8,113.85-.39,2.7-2.34,4.25-5.08,4.25h-.39c-2.73-.38-4.69-2.7-4.3-5.4,3.13-28.96,12.11-56.38,25.78-81.09,10.94-20.08,25-38.62,42.19-55.22,28.91-28.19,55.86-40.93,57.03-41.32,2.34-1.16,5.47,0,6.64,2.32,1.17,2.32,0,5.41-2.34,6.57-.39.38-26.95,12.74-54.69,39.77-2.9,2.86-5.88,5.96-8.91,9.28.1.04.21.08.31.14,26.17,15.06,58.59,0,58.98,0,2.34-1.16,5.47,0,6.64,2.32,1.17,2.32,0,5.41-2.34,6.57-.78.38-16.8,7.72-36.33,7.72-10.16,0-21.1-1.93-31.64-8.11ZM255.75,227.07c0,15.06-12.11,27.03-27.34,27.03h-36.33c-2.73,0-5.08-2.32-5.08-5.02s2.34-5.02,5.08-5.02h36.33c9.37,0,17.19-7.72,17.19-16.99v-35.92c0-2.7,2.34-5.02,5.08-5.02s5.08,2.32,5.08,5.02v35.92Z"/>
</svg>